<svg xmlns="http://www.w3.org/2000/svg" width="1800" height="1100" viewBox="0 0 1800 1100">
<defs><linearGradient id="bg" x1="0" x2="1" y1="0" y2="1"><stop offset="0" stop-color="#050506"/><stop offset="0.65" stop-color="#111315"/><stop offset="1" stop-color="#1c1f24"/></linearGradient><radialGradient id="glow" cx="70%" cy="25%" r="60%"><stop offset="0" stop-color="#38bdf8" stop-opacity="0.33"/><stop offset="1" stop-color="#38bdf8" stop-opacity="0"/></radialGradient><linearGradient id="body" x1="0" x2="1"><stop offset="0" stop-color="#2d333d"/><stop offset="1" stop-color="#050506"/></linearGradient></defs>
<rect width="1800" height="1100" fill="url(#bg)"/><rect width="1800" height="1100" fill="url(#glow)"/>
<ellipse cx="900" cy="780" rx="590" ry="90" fill="#ffffff" opacity="0.06"/><ellipse cx="900" cy="760" rx="620" ry="120" fill="none" stroke="#38bdf8" stroke-opacity="0.35" stroke-width="3"/>
<polygon points="275,612 325,574 455,554 565,474 755,468 915,545 1200,568 1275,620 1160,640 390,642" fill="url(#body)" stroke="#ffffff" stroke-opacity="0.2" stroke-width="3"/>
<polygon points="600,486 710,425 850,438 970,550 820,532 670,514" fill="#102533" stroke="#38bdf8" stroke-opacity="0.55" stroke-width="2"/>
<line x1="320" y1="594" x2="520" y2="556" stroke="#38bdf8" stroke-width="7" stroke-linecap="round"/><line x1="1040" y1="560" x2="1230" y2="588" stroke="#38bdf8" stroke-width="7" stroke-linecap="round"/>
<g fill="#050506" stroke="#38bdf8" stroke-opacity="0.65" stroke-width="6"><circle cx="505" cy="646" r="76"/><circle cx="1075" cy="646" r="76"/></g><g fill="none" stroke="#d7d9dc" stroke-opacity="0.45" stroke-width="4"><circle cx="505" cy="646" r="45"/><circle cx="1075" cy="646" r="45"/></g>
<text x="70" y="120" fill="#f5f7fa" font-family="Arial" font-size="58" font-weight="800" letter-spacing="8">VELOCRAFT 3D STYLE CAR SILHOUETTE</text>
<text x="74" y="170" fill="#b9bec4" font-family="Arial" font-size="25" letter-spacing="4">ORIGINAL FICTIONAL VECTOR ASSET</text>
</svg>